<?xml version="1.0" encoding="iso-8859-1"?>
<!-- Generator: Adobe Illustrator 21.0.0, SVG Export Plug-In . SVG Version: 6.00 Build 0)  -->
<svg version="1.1" id="Capa_1" xmlns="http://www.w3.org/2000/svg" xmlns:xlink="http://www.w3.org/1999/xlink" x="0px" y="0px"
	 viewBox="0 0 512 512" style="enable-background:new 0 0 512 512;" xml:space="preserve">
<circle style="fill:#00EDFF;" cx="256" cy="256" r="256"/>
<path style="fill:#00C7E8;" d="M512,256c0-1.355-0.03-2.702-0.051-4.051L343,83L80.768,356.551l154.621,154.621
	c6.8,0.542,13.672,0.828,20.612,0.828C397.385,512,512,397.385,512,256z"/>
<rect x="142.25" y="146.08" style="fill:#555A66;" width="227.5" height="64.5"/>
<rect x="255.57" y="146.08" style="fill:#414952;" width="114.18" height="64.5"/>
<rect x="169" y="83" style="fill:#FFFFFF;" width="174" height="112.45"/>
<rect x="255.57" y="83" style="fill:#F2F6FC;" width="87.43" height="112.45"/>
<rect x="80.77" y="195.45" style="fill:#414952;" width="350.46" height="161.1"/>
<g>
	<rect x="255.57" y="195.45" style="fill:#23272B;" width="175.66" height="161.1"/>
	<rect x="80.77" y="276" style="fill:#23272B;" width="350.46" height="80.55"/>
	<rect x="255.57" y="276" style="fill:#23272B;" width="175.66" height="80.55"/>
</g>
<rect x="142.25" y="315" style="fill:#555A66;" width="227.5" height="64.5"/>
<rect x="255.57" y="315" style="fill:#414952;" width="114.18" height="64.5"/>
<g>
	<circle style="fill:#FF0086;" cx="400.85" cy="221.44" r="10.854"/>
	<circle style="fill:#FF0086;" cx="370.52" cy="221.44" r="10.854"/>
</g>
<g>
</g>
<g>
</g>
<g>
</g>
<g>
</g>
<g>
</g>
<g>
</g>
<g>
</g>
<g>
</g>
<g>
</g>
<g>
</g>
<g>
</g>
<g>
</g>
<g>
</g>
<g>
</g>
<g>
</g>
</svg>
